<?xml version="1.0" encoding="UTF-8"?>
<svg xmlns="http://www.w3.org/2000/svg" xmlns:xlink="http://www.w3.org/1999/xlink" version="1.1" viewBox="0 0 673 739" width="673" height="739" fill="none">
  <!-- https://undraw.co/illustration/taken_mshk, licensed under https://undraw.co/license -->
  <style>
    :root {
      --color-primary-500: #4a88da;
      --color-gray-300: #cad5e2;
      --color-gray-500: #62748e;
      --color-gray-600: #45556c;
      --color-gray-700: #314158;
      --color-gray-800: #1d293d;
      --color-white: #fff;
    }
  </style>
  <mask id="b" width="673" height="739" x="0" y="0" maskUnits="userSpaceOnUse">
    <path fill="var(--color-white)" d="M672.531 0H0v738.394h672.531z" />
  </mask>
  <g mask="url(#b)">
    <path fill="var(--color-primary-500)" d="M467 149.804c-46.62-7.44-99.71-11.41-155-11.41-50.6 0-99.35 3.32-142.98 9.58.01-.67.02-1.34.05-2.01a148.999 148.999 0 0 1 297.91 1.82c.01.68.02 1.35.02 2.02" />
    <path fill="var(--color-white)" d="M337.55 1.341A149.047 149.047 0 0 0 168.619 144.57c-.03.67-.04 1.34-.05 2.01 12.962-1.86 26.385-3.453 40.165-4.784A149.026 149.026 0 0 1 337.55 1.341" opacity=".1" />
    <path fill="var(--color-gray-700)" d="M532.18 161.624a600 600 0 0 0-65.2-13.84 943 943 0 0 0-108.74-10.45 1134 1134 0 0 0-83.01-.34 973 973 0 0 0-106.16 8.97 624 624 0 0 0-77.25 15.66C32.61 177.994 0 199.934 0 223.394s32.61 45.4 91.82 61.77c41.64 11.52 92.98 19.37 148.92 22.97 23.09 1.5 46.96 2.26 71.26 2.26 24.38 0 48.33-.77 71.49-2.27 50.91-3.29 98.01-10.1 137.43-20 .21-.06.41-.11.62-.16 2.66-.66 5.28-1.35 7.87-2.04.93-.26 1.85-.51 2.77-.76a1 1 0 0 1 .16-.05c.88-.24 1.75-.49 2.62-.73 1.74-.5 3.46-.99 5.15-1.5.08-.02.15-.04.22-.06 1.47-.44 2.91-.88 4.34-1.32 1.17-.37 2.33-.73 3.48-1.1q1.26-.405 2.49-.81c.6-.2 1.19-.39 1.77-.59.79-.26 1.58-.53 2.36-.8.33-.11.66-.22.98-.34.75-.25 1.48-.51 2.21-.77.79-.28 1.58-.57 2.36-.85.65-.23 1.3-.47 1.94-.71.54-.21 1.07-.41 1.61-.61 1.47-.55 2.91-1.12 4.33-1.68.71-.29 1.42-.57 2.12-.86.69-.28 1.39-.57 2.07-.86q1.68-.705 3.3-1.41c.52-.24 1.05-.47 1.56-.69.39-.18.77-.35 1.16-.53.28-.12.56-.25.83-.38 1.01-.46 2.01-.93 2.99-1.4q5.64-2.7 10.53-5.52c20.45-11.71 31.24-24.7 31.24-38.2 0-23.46-32.61-45.4-91.82-61.77m-.54 121.62c-41.69 11.53-93.17 19.38-149.26 22.95-22.81 1.45-46.39 2.2-70.38 2.2-23.91 0-47.41-.74-70.15-2.19-56.18-3.56-107.74-11.41-149.49-22.96C34.09 267.124 2 245.874 2 223.394c.003-1.986.252-3.965.74-5.89 5.1-20.28 36.47-39.26 89.62-53.96a624 624 0 0 1 76.66-15.57 976 976 0 0 1 106.8-9q17.88-.585 36.18-.58c15.41 0 30.65.31 45.63.91a942 942 0 0 1 109.37 10.5 599 599 0 0 1 64.64 13.74c53.14 14.7 84.5 33.67 89.61 53.94.496 1.931.748 3.916.75 5.91 0 22.48-32.09 43.73-90.36 59.85" />
    <path fill="var(--color-gray-500)" fill-opacity=".8" d="M312 310c172.313 0 312-38.951 312-87s-139.687-87-312-87S0 174.951 0 223s139.687 87 312 87" />
    <path fill="var(--color-gray-700)" d="M623.43 224.304c0 13.36-11.01 26-30.67 37.29-3.27 1.88-6.79 3.72-10.53 5.52-.98.47-1.98.94-2.99 1.4-.27.13-.55.26-.83.38-.39.18-.77.35-1.16.53-.51.22-1.04.45-1.56.69q-1.62.705-3.3 1.41c-.68.29-1.38.58-2.07.86-.7.29-1.41.57-2.12.86-1.42.56-2.86 1.13-4.33 1.68-.54.2-1.07.4-1.61.61-.64.24-1.29.48-1.94.71-.78.28-1.57.57-2.36.85-.73.26-1.46.52-2.21.77-.32.12-.65.23-.98.34-.78.27-1.57.54-2.36.8-.58.2-1.17.39-1.77.59q-1.23.405-2.49.81c-1.15.37-2.31.73-3.48 1.1-1.43.44-2.87.88-4.34 1.32-.07.02-.14.04-.22.06-1.69.51-3.41 1-5.15 1.5-.87.24-1.74.49-2.62.73a1 1 0 0 0-.16.05c-.92.25-1.84.5-2.77.76-2.58.68-5.21 1.37-7.87 2.04-.21.05-.41.1-.62.16-38.35 9.58-85.4 16.56-137.47 19.93-22.81 1.47-46.59 2.25-71.02 2.25-24.65 0-48.63-.79-71.62-2.29-137.24-8.95-239.38-43.03-239.38-83.71a25 25 0 0 1 1.12-7.3c.06.17.12.33.19.5 14.27 37.48 115.54 67.77 246.94 75.16 20.13 1.14 40.98 1.73 62.32 1.73 21.43 0 42.36-.6 62.57-1.74 131.29-7.42 232.46-37.72 246.68-75.17q.36-.9.63-1.8a25.3 25.3 0 0 1 1.55 8.62" />
    <path fill="var(--color-gray-800)" d="M336.978 492.717c23.203 0 42.012-18.81 42.012-42.013s-18.809-42.012-42.012-42.012-42.012 18.809-42.012 42.012 18.809 42.013 42.012 42.013" />
    <path fill="var(--color-gray-800)" d="m321.002 478.307-20.447 10.239 5.715 11.412 20.447-10.239z" />
    <path fill="var(--color-gray-800)" d="M308.966 498.8c1.212-1.839-1.78-5.951-6.684-9.184-4.904-3.234-9.863-4.364-11.075-2.525-1.213 1.839 1.78 5.951 6.684 9.184 4.904 3.234 9.862 4.364 11.075 2.525m43.988-20.493-5.715 11.412 20.447 10.239 5.715-11.412z" />
    <path fill="var(--color-gray-800)" d="M376.065 496.275c4.904-3.233 7.897-7.345 6.684-9.184-1.212-1.839-6.171-.709-11.075 2.525s-7.897 7.345-6.684 9.184c1.212 1.839 6.171.709 11.075-2.525" />
    <path fill="var(--color-white)" d="M334.037 454.786c7.93 0 14.358-6.428 14.358-14.358s-6.428-14.359-14.358-14.359-14.359 6.429-14.359 14.359 6.429 14.358 14.359 14.358" />
    <path fill="var(--color-gray-800)" d="M337.529 437.675c1.862-1.861 1.851-4.89-.024-6.764s-4.903-1.885-6.764-.024-1.851 4.89.024 6.764 4.903 1.885 6.764.024m56.808 35.028c2.763-2.372-1.123-11.431-8.68-20.234-7.556-8.802-15.923-14.015-18.686-11.643s1.122 11.432 8.679 20.234 15.923 14.016 18.687 11.643m-95.914-11.643c7.557-8.802 11.443-17.862 8.679-20.234s-11.129 2.841-18.686 11.643c-7.557 8.803-11.443 17.862-8.679 20.234s11.129-2.84 18.686-11.643" />
    <path fill="var(--color-white)" d="M348.517 467.261a9.573 9.573 0 0 1-18.836 3.429l-.003-.019c-.942-5.202 3.08-7.043 8.282-7.985 5.203-.941 9.615-.627 10.557 4.575" />
    <path fill="var(--color-gray-300)" d="M266 495.394a2 2 0 0 1-2-2v-118a2 2 0 0 1 4 0v118a2 2 0 0 1-2 2m-30 106a2 2 0 0 1-2-2v-86a2 2 0 0 1 4 0v86a2 2 0 0 1-2 2m77-71a2 2 0 0 1-2-2v-118a2 2 0 0 1 4 0v118a2 2 0 0 1-2 2M284 615.394a2 2 0 0 1-2-2v-48a2 2 0 0 1 4 0v48a2 2 0 0 1-2 2M325 369.394a2 2 0 0 1-2-2v-48a2 2 0 0 1 4 0v48a2 2 0 0 1-2 2m-100 21a2 2 0 0 1-2-2v-48a2 2 0 0 1 4 0v48a2 2 0 0 1-2 2m174 5a2 2 0 0 1-2-2v-48a2 2 0 0 1 4 0v48a2 2 0 0 1-2 2m-4 150a2 2 0 0 1-2-2v-58a2 2 0 0 1 4 0v58a2 2 0 0 1-2 2m-40 51a2 2 0 0 1-2-2v-86a2 2 0 0 1 4 0v86a2 2 0 0 1-2 2m8-147a2 2 0 0 1-2-2v-118a2 2 0 0 1 4 0v118a2 2 0 0 1-2 2" />
    <path fill="var(--color-gray-800)" d="M608.193 700.491c2.863-2.397-1.006-11.732-8.64-20.85s-16.145-14.568-19.007-12.171c-2.863 2.396 1.006 11.732 8.64 20.85s16.145 14.568 19.007 12.171" />
    <path fill="var(--color-gray-800)" d="M589.419 690.121c7.522-22.564-4.673-46.954-27.238-54.476s-46.954 4.673-54.476 27.238 4.673 46.955 27.238 54.477 46.955-4.674 54.476-27.239" />
    <path fill="var(--color-gray-800)" d="M566.791 710.302h-13.084v23.442h13.084zm-26.167 0H527.54v23.442h13.084z" />
    <path fill="var(--color-gray-800)" d="M555.888 738.105c6.022 0 10.903-1.831 10.903-4.089s-4.881-4.088-10.903-4.088-10.903 1.83-10.903 4.088 4.881 4.089 10.903 4.089m-26.168-.545c6.022 0 10.904-1.831 10.904-4.089s-4.882-4.089-10.904-4.089c-6.021 0-10.903 1.831-10.903 4.089s4.882 4.089 10.903 4.089m-10.21-71.813c1.6-3.374-5.814-10.24-16.559-15.336s-20.753-6.493-22.353-3.12 5.814 10.239 16.559 15.336 20.753 6.493 22.353 3.12" />
    <path fill="var(--color-white)" d="M542.124 681.773c7.93 0 14.358-6.428 14.358-14.358s-6.428-14.359-14.358-14.359-14.359 6.429-14.359 14.359 6.429 14.358 14.359 14.358" />
    <path fill="var(--color-gray-800)" d="M536.222 667.054a4.786 4.786 0 1 0 0-9.571 4.786 4.786 0 0 0 0 9.571" />
    <path fill="var(--color-white)" d="M542 703.394a6 6 0 1 0 0-12 6 6 0 0 0 0 12" />
    <path fill="var(--color-gray-600)" d="M671.531 738.394h-236a1 1 0 1 1 0-2h236a1 1 0 1 1 0 2" />
    <path fill="var(--color-gray-700)" d="M91.67 213.54c18.96 0 34.33-4.574 34.33-10.217s-15.37-10.217-34.33-10.217-34.331 4.574-34.331 10.217 15.37 10.217 34.33 10.217m71 47c18.96 0 34.331-4.574 34.331-10.217s-15.371-10.217-34.331-10.217-34.331 4.574-34.331 10.217 15.371 10.217 34.331 10.217m149 22c18.96 0 34.331-4.574 34.331-10.217s-15.371-10.217-34.331-10.217-34.331 4.574-34.331 10.217 15.371 10.217 34.331 10.217m149-22c18.96 0 34.331-4.574 34.331-10.217s-15.371-10.217-34.331-10.217-34.331 4.574-34.331 10.217 15.371 10.217 34.331 10.217m71-47c18.96 0 34.331-4.574 34.331-10.217s-15.371-10.217-34.331-10.217-34.331 4.574-34.331 10.217 15.371 10.217 34.331 10.217" />
  </g>
  <defs>
    <clipPath id="a">
      <path fill="var(--color-white)" d="M0 0h673v739H0z" />
    </clipPath>
  </defs>
</svg>
