<svg width="20" height="17" fill="none" xmlns="http://www.w3.org/2000/svg"><path d="M10 0H5.3353v5.9145c0 3.2604-2.3882 5.9079-5.3353 5.9079V17c2.6522 0 5.1957-1.1679 7.071-3.2469C8.9465 11.6742 10 8.8545 10 5.9145V0Z" fill="#6366F1"/><path fill-rule="evenodd" clip-rule="evenodd" d="M11.6647 5.445V.1304c2.3303.4362 4.446 1.773 5.9718 3.7737C19.1623 5.9047 19.9996 8.4397 20 11.0595v5.9144h-4.6647v-5.9144c-.0009-1.245-.3562-2.458-1.0152-3.4661-.6591-1.0081-1.5884-1.76-2.6554-2.1484ZM6.0471 16.9739C7.6656 15.8843 9.0219 14.3763 10 12.5788v4.3951H6.047Z" fill="#6366F1"/></svg>