<svg xmlns="http://www.w3.org/2000/svg" xml:space="preserve" viewBox="0 0 564.83917 235.12399">
  <path fill="#231f20" d="M147.48720046 235.12399131H87.6365353l6.80399983-104.02533073L55.57520276 235.1239913H.00000416L88.17920194-.00000281h59.13733185l-6.82799983 105.4493307L180.09119965-.00000281h55.57466528L147.48720046 235.1239913m7.21599982 1e-8L242.88319808-.00000281h55.57466528l-88.1799978 235.12399412h-55.57466528m216.06932793-15.67466627-3.56133324-122.54933027 84.02666457-92.2559977zM549.90585707 39.18666288l14.93333296-39.1866657H395.26586094l-58.23199855 70.53733158L363.91519505-.00000281H307.6285298L220.16186531 235.1239913h55.57466528l37.3413324-98.32533087 2.5586666 98.32533087 170.52399574-.36933332 16.23333293-45.23066554h-64.83733171l21.3013328-56.99999857h53.437332l16.43999958-43.81866558h-53.437332l18.31999955-49.51866542h56.28799859"/>
</svg>
